<svg xmlns="http://www.w3.org/2000/svg" viewBox="0 0 900 310" width="900" height="310">
  <rect width="900" height="310" rx="12" fill="#0d1117"/>
  <rect x="0" y="0" width="900" height="38" rx="12" fill="#161b22"/>
  <rect x="0" y="26" width="900" height="12" fill="#161b22"/>
  <circle cx="24" cy="19" r="6" fill="#ff5f57"/>
  <circle cx="44" cy="19" r="6" fill="#febc2e"/>
  <circle cx="64" cy="19" r="6" fill="#28c840"/>
  <text x="450" y="24" text-anchor="middle" font-family="monospace" font-size="12" fill="#6e7681">~ xpressify</text>
  <text x="450" y="78"  text-anchor="middle" font-family="monospace" font-size="15" fill="#a78bfa">__   __                        _  __</text>
  <text x="450" y="96"  text-anchor="middle" font-family="monospace" font-size="15" fill="#818cf8">\ \ / /                       (_)/ _|</text>
  <text x="450" y="114" text-anchor="middle" font-family="monospace" font-size="15" fill="#60a5fa"> \ V / _ __  _ __ ___  ___ ___ _| |_ _   _</text>
  <text x="450" y="132" text-anchor="middle" font-family="monospace" font-size="15" fill="#34d399">  &gt; &lt; | &apos;_ \| &apos;__/ _ \/ __/ __| |  _| | | |</text>
  <text x="450" y="150" text-anchor="middle" font-family="monospace" font-size="15" fill="#2dd4bf"> / . \| |_) | |  |  __/\__ \__ \ | | | |_| |</text>
  <text x="450" y="168" text-anchor="middle" font-family="monospace" font-size="15" fill="#38bdf8">/_/ \_\ .__/|_|  \___||___/___/_|_|  \__, |</text>
  <text x="450" y="186" text-anchor="middle" font-family="monospace" font-size="15" fill="#818cf8">      | |                              __/ |</text>
  <text x="450" y="204" text-anchor="middle" font-family="monospace" font-size="15" fill="#a78bfa">      |_|                             |___/</text>
  <line x1="180" y1="220" x2="720" y2="220" stroke="#21262d" stroke-width="1"/>
  <text x="450" y="242" text-anchor="middle" font-family="sans-serif" font-size="14" fill="#8b949e">Modern Express CLI &#8212; scaffold TypeScript + ESM projects instantly</text>
  <text x="450" y="262" text-anchor="middle" font-family="sans-serif" font-size="12" fill="#484f58">Created by David Veryutin &#183; github.com/davids199005-oss</text>
  <rect x="200" y="278" width="88" height="22" rx="4" fill="#cc3534"/>
  <text x="244" y="293" text-anchor="middle" font-family="sans-serif" font-size="11" font-weight="bold" fill="#ffffff">npm v1.0.0</text>
  <rect x="296" y="278" width="88" height="22" rx="4" fill="#026e00"/>
  <text x="340" y="293" text-anchor="middle" font-family="sans-serif" font-size="11" font-weight="bold" fill="#ffffff">node 20+</text>
  <rect x="392" y="278" width="100" height="22" rx="4" fill="#3178c6"/>
  <text x="442" y="293" text-anchor="middle" font-family="sans-serif" font-size="11" font-weight="bold" fill="#ffffff">TypeScript 6</text>
  <rect x="500" y="278" width="56" height="22" rx="4" fill="#1d4ed8"/>
  <text x="528" y="293" text-anchor="middle" font-family="sans-serif" font-size="11" font-weight="bold" fill="#ffffff">Zod v4</text>
  <rect x="564" y="278" width="50" height="22" rx="4" fill="#6e40c9"/>
  <text x="589" y="293" text-anchor="middle" font-family="sans-serif" font-size="11" font-weight="bold" fill="#ffffff">MIT</text>
</svg>